<svg id="ed7JvVm01RW1" xmlns="http://www.w3.org/2000/svg" xmlns:xlink="http://www.w3.org/1999/xlink" viewBox="0 0 300 300" shape-rendering="geometricPrecision" text-rendering="geometricPrecision"><path d="M62.21133,120.53148c0-21.49036,17.42138-38.91174,38.91174-38.91174c14.07111,0,26.39778,7.46881,33.2319,18.65833l-8.55618,15.50807l13.40217,15.91507l1.48969-36.2944c7.13772-8.43311,17.80077-13.78708,29.71429-13.78708c21.49036,0,38.91174,17.42138,38.91174,38.91174c0,12.34078-5.74487,23.33978-14.70616,30.46852h.46267l-56.23182,56.23182l11.15862-29.75633-12.28243-9.63328-1.72999,42.14894-58.70159-58.7016c-9.17198-7.11849-15.07465-18.24895-15.07465-30.75807v.00001Zm76.98964,11.16974l-.22052,5.37276l2.00342-3.25556-1.7829-2.1172ZM125.7988,158.49415l11.91877,9.34806l1.26287-30.76823-13.18164,21.42017Z" fill="#ff09e3" stroke-width="0"/></svg>
