<svg id="eBpS0yLtCql1" xmlns="http://www.w3.org/2000/svg" xmlns:xlink="http://www.w3.org/1999/xlink" viewBox="0 0 1920 1080" shape-rendering="geometricPrecision" text-rendering="geometricPrecision"><path d="M712.29358,693.57798c0,0-.17002-.103-.5-.30603-.32998.20303-.5.30603-.5.30603v-.61477c-14.99445-9.28831-193.57984-122.3521-193.57984-238.55006c0-121.28985,0-158.87407,0-158.87407s72.88095-15.86534,102.33055-29.04115c27.26218-12.19715,83.10418-51.58685,91.24929-57.37103v-.71185c0,0,.17123.12244.5.35642.32877-.23398.5-.35642.5-.35642v.71185c8.1451,5.78418,63.9871,45.17388,91.24929,57.37103c29.4496,13.17581,102.33055,29.04115,102.33055,29.04115s0,37.58422,0,158.87407c0,116.19796-178.58539,229.26175-193.57984,238.55006v.61477Z" fill="#e2f91f" stroke="#3c49ab" stroke-width="5"/><path d="M712.29358,693.57798c0,0-.17002-.103-.5-.30603-.32998.20303-.5.30603-.5.30603v-.61477c-.60963-.37764-1.48968-.92681-2.61715-1.64077c45.80481-45.50608,82.59233-99.6187,94.86644-134.18343c15.37307-43.29164,25.27376-86.58328,29.70208-129.87492v-150.27943c32.69266,9.86084,72.62847,18.55441,72.62847,18.55441s0,37.58422,0,158.87407c0,116.19796-178.58539,229.26175-193.57984,238.55006v.61478Z" fill="#e0dd28" stroke-width="0"/></svg>
